<svg width="300" height="106" version="1.1" viewBox="0 0 79.375 28.046" xmlns="http://www.w3.org/2000/svg">
 <g transform="translate(0 -268.95)">
  <g>
   <path d="m1.8403 275.72h2.1505l2.1844 12.024h0.033867l2.4384-12.024h2.1675l2.3707 12.024h0.03387l2.2521-12.024h2.1505l-3.3359 15.723h-2.1505l-2.4215-12.024h-0.033866l-2.4723 12.024h-2.1844z"/>
   <path d="m22.16 291.76q-1.0499 0-1.8796-0.44042-0.8128-0.46245-1.3885-1.2552-0.5588-0.79277-0.8636-1.8938-0.28787-1.1011-0.28787-2.4224 0-1.2993 0.28787-2.4003 0.3048-1.1011 0.8636-1.8938 0.57573-0.79278 1.3885-1.2332 0.82973-0.46247 1.8796-0.46247 1.0499 0 1.8627 0.46247 0.82973 0.44042 1.3885 1.2332 0.57573 0.79277 0.8636 1.8938 0.3048 1.1011 0.3048 2.4003 0 1.3213-0.3048 2.4224-0.28787 1.1011-0.8636 1.8938-0.5588 0.79278-1.3885 1.2552-0.8128 0.44042-1.8627 0.44042zm0-1.9819q0.64347 0 1.1176-0.35235 0.47413-0.35234 0.77893-0.92489 0.3048-0.57257 0.44027-1.2772 0.1524-0.72671 0.1524-1.4754 0-0.72671-0.1524-1.4534-0.13547-0.72671-0.44027-1.2773-0.3048-0.57255-0.77893-0.9249-0.47413-0.35234-1.1176-0.35234-0.64347 0-1.1176 0.35234-0.47413 0.35235-0.77893 0.9249-0.3048 0.55055-0.4572 1.2773-0.13547 0.7267-0.13547 1.4534 0 0.74873 0.13547 1.4754 0.1524 0.70468 0.4572 1.2772 0.3048 0.57255 0.77893 0.92489 0.47413 0.35235 1.1176 0.35235z"/>
   <path d="m27.923 280.06h1.8119v2.2022h0.03387q0.08466-0.46246 0.32173-0.90289 0.254-0.44043 0.59267-0.79277 0.3556-0.37436 0.77893-0.59458t0.8636-0.22022q0.33867 0 0.4572 0.022 0.13547 0.022 0.27093 0.044v2.4224q-0.2032-0.044-0.42333-0.066-0.2032-0.044-0.4064-0.044-0.49107 0-0.93133 0.26426-0.42333 0.24224-0.74507 0.74873-0.32173 0.48447-0.508 1.2112t-0.18627 1.6736v5.4173h-1.9304z"/>
   <path d="m33.663 275.72h1.9304v15.723h-1.9304z"/>
   <path d="m45.662 291.45h-1.8288v-1.5415h-0.03387q-0.38947 0.99098-1.1345 1.4314-0.74507 0.4184-1.5748 0.4184-1.0329 0-1.8119-0.46245-0.762-0.48447-1.27-1.2993-0.508-0.81479-0.762-1.9159-0.254-1.1231-0.254-2.4003 0-1.5415 0.32173-2.6646 0.32173-1.1231 0.84667-1.8498 0.54187-0.72672 1.2192-1.057 0.69427-0.35235 1.4055-0.35235 0.4064 0 0.82973 0.11017 0.42333 0.088 0.8128 0.3083 0.38947 0.22021 0.7112 0.57255 0.33867 0.33033 0.5588 0.79278h0.03387v-5.8137h1.9304zm-6.7395-5.5714q0 0.72672 0.13547 1.4314 0.1524 0.70469 0.44027 1.2552 0.3048 0.55053 0.762 0.88086 0.4572 0.33032 1.0837 0.33032 0.64347 0 1.1007-0.35235 0.47413-0.35234 0.762-0.92489 0.3048-0.57257 0.44027-1.2772 0.1524-0.72671 0.1524-1.4754 0-1.8938-0.6604-2.9509-0.64347-1.057-1.7611-1.057-0.67733 0-1.1515 0.37436-0.4572 0.35235-0.762 0.94694-0.28787 0.57255-0.42333 1.3213-0.11853 0.72671-0.11853 1.4974z"/>
   <path d="m47.773 275.72h2.1167v13.345h6.1468v2.3783h-8.2635z"/>
   <path transform="matrix(.26458 0 0 .26458 0 268.95)" d="m221.2 27.113c-0.0436 0.01678-0.0906 0.02661-0.13085 0.05078-0.0205 0.01227-0.0154 0.01658-0.0312 0.02734 0.0432 0.02224 0.0871 0.0418 0.1289 0.06641 7e-3 -0.02231 0.0209-0.04333 0.0254-0.06641 9e-3 -0.04446 2e-3 -0.04284 8e-3 -0.07813zm-5.7246 14.873v43.029h7.2949v-43.029z"/>
   <path d="m60.765 280.06h1.8288v1.6736l0.03387 0.044q0.44027-0.94692 1.1515-1.4754 0.7112-0.55055 1.5748-0.55055 1.4393 0 2.2691 0.96895 0.82973 0.96894 0.82973 2.9068v7.8176h-1.9304v-7.157q-0.03387-1.3433-0.44027-1.9379-0.4064-0.6166-1.27-0.6166-0.49107 0-0.88053 0.24224-0.38947 0.22021-0.6604 0.63861-0.27093 0.39639-0.42333 0.94693t-0.1524 1.1671v6.7166h-1.9304z"/>
   <path d="m70.274 275.72h1.9304v8.9407l3.4883-4.6025h2.3707l-3.3528 4.1841 3.6745 7.201h-2.3537l-2.6755-5.5274-1.1515 1.4534v4.074h-1.9304z"/>
  </g>
  <g transform="matrix(.14286 0 0 .14286 54.524 273.38)">
   <path d="m24 4c-11 0-20 9-20 20s9 20 20 20 20-9 20-20-9-20-20-20z" fill="#7cb342"/>
   <path d="m45 24c0 11.7-9.5 21-21 21s-21-9.3-21-21 9.3-21 21-21 21 9.3 21 21zm-21.2 9.7c0-0.4-0.2-0.6-0.6-0.8-1.3-0.4-2.5-0.4-3.6-1.5-0.2-0.4-0.2-0.8-0.4-1.3-0.4-0.4-1.5-0.6-2.1-0.8h-2.7-1.5c-0.6-0.2-1.1-1.1-1.5-1.7 0-0.2 0-0.6-0.4-0.6-0.4-0.2-0.8 0.2-1.3 0-0.2-0.2-0.2-0.4-0.2-0.6 0-0.6 0.4-1.3 0.8-1.7 0.6-0.4 1.3 0.2 1.9 0.2 0.2 0 0.2 0 0.4 0.2 0.6 0.2 0.8 1 0.8 1.7v0.4c0 0.2 0.2 0.2 0.4 0.2 0.2-1.1 0.2-2.1 0.4-3.2 0-1.3 1.3-2.5 2.3-2.9 0.4-0.2 0.6 0.2 1.1 0 1.3-0.4 4.4-1.7 3.8-3.4-0.4-1.5-1.7-2.9-3.4-2.7-0.4 0.2-0.6 0.4-1 0.6-0.6 0.4-1.9 1.7-2.5 1.7-1.1-0.2-1.1-1.7-0.8-2.3 0.2-0.8 2.1-3.6 3.4-3.1l0.8 0.8c0.4 0.2 1.1 0.2 1.7 0.2 0.2 0 0.4 0 0.6-0.2s0.2-0.2 0.2-0.4c0-0.6-0.6-1.3-1-1.7s-1.1-0.8-1.7-1.1c-2.1-0.6-5.5 0.2-7.1 1.7s-2.9 4-3.8 6.1c-0.4 1.3-0.8 2.9-1 4.4-0.2 1-0.4 1.9 0.2 2.9 0.6 1.3 1.9 2.5 3.2 3.4 0.8 0.6 2.5 0.6 3.4 1.7 0.6 0.8 0.4 1.9 0.4 2.9 0 1.3 0.8 2.3 1.3 3.4 0.2 0.6 0.4 1.5 0.6 2.1 0 0.2 0.2 1.5 0.2 1.7 1.3 0.6 2.3 1.3 3.8 1.7 0.2 0 1-1.3 1-1.5 0.6-0.6 1.1-1.5 1.7-1.9 0.4-0.2 0.8-0.4 1.3-0.8 0.4-0.4 0.6-1.3 0.8-1.9 0.1-0.5 0.3-1.3 0.1-1.9zm0.4-19.4c0.2 0 0.4-0.2 0.8-0.4 0.6-0.4 1.3-1.1 1.9-1.5s1.3-1.1 1.7-1.5c0.6-0.4 1.1-1.3 1.3-1.9 0.2-0.4 0.8-1.3 0.6-1.9-0.2-0.4-1.3-0.6-1.7-0.8-1.7-0.4-3.1-0.6-4.8-0.6-0.6 0-1.5 0.2-1.7 0.8-0.2 1.1 0.6 0.8 1.5 1.1 0 0 0.2 1.7 0.2 1.9 0.2 1-0.4 1.7-0.4 2.7 0 0.6 0 1.7 0.4 2.1zm17.6 14.7c0.2-0.4 0.2-1.1 0.4-1.5 0.2-1 0.2-2.1 0.2-3.1 0-2.1-0.2-4.2-0.8-6.1-0.4-0.6-0.6-1.3-0.8-1.9-0.4-1.1-1-2.1-1.9-2.9-0.8-1.1-1.9-4-3.8-3.1-0.6 0.2-1 1-1.5 1.5-0.4 0.6-0.8 1.3-1.3 1.9-0.2 0.2-0.4 0.6-0.2 0.8 0 0.2 0.2 0.2 0.4 0.2 0.4 0.2 0.6 0.2 1 0.4 0.2 0 0.4 0.2 0.2 0.4 0 0 0 0.2-0.2 0.2-1 1.1-2.1 1.9-3.1 2.9-0.2 0.2-0.4 0.6-0.4 0.8s0.2 0.2 0.2 0.4-0.2 0.2-0.4 0.4c-0.4 0.2-0.8 0.4-1.1 0.6-0.2 0.4 0 1.1-0.2 1.5-0.2 1.1-0.8 1.9-1.3 2.9-0.4 0.6-0.6 1.3-1 1.9 0 0.8-0.2 1.5 0.2 2.1 1 1.5 2.9 0.6 4.4 1.3 0.4 0.2 0.8 0.2 1.1 0.6 0.6 0.6 0.6 1.7 0.8 2.3 0.2 0.8 0.4 1.7 0.8 2.5 0.2 1 0.6 2.1 0.8 2.9 1.9-1.5 3.6-3.1 4.8-5.2 1.5-1.3 2.1-3 2.7-4.7z" fill="#0277bd"/>
  </g>
 </g>
</svg>
