<svg xmlns="http://www.w3.org/2000/svg" viewBox="0 0 49.48 88.82"><defs><style>.cls-1{fill:#fffcf7;}</style></defs><title>Datový zdroj 10</title><g id="Vrstva_2" data-name="Vrstva 2"><g id="Vrstva_1-2" data-name="Vrstva 1"><path class="cls-1" d="M10.09,24.53,10,26.74l-.24,2.54a1,1,0,0,0,0,.43c-.13,0-.16,1.09-.15,1.21v.24a7.63,7.63,0,0,0-.23,1.94c-.06.36,0,.61-.05.91-.11.6-.12,1.6-.16,2.3-.13,1.33-.58,3.93-.52,5.08a6.68,6.68,0,0,1,0,.85.58.58,0,0,0-.09.45,7,7,0,0,1-.19,1.69l-.08.79c0,.88-.28,2.27-.24,3.12a7.78,7.78,0,0,1-.07,1.3l-.1,1.52-.11,2.15c-.26.51-.17.09-.14.76.45.62.58.59,1.58.49.49,0,1.44-.11,1.95-.13.32,0,1.63,0,2-.07.64-.11,1.32-.12,2-.16s1.19,0,1.89-.07,1.48.07,2,0,1.48.07,2,0c.41-.05,1.57-.08,2-.07,2.68.07,5.42-.07,8.21,0,1.44,0,2.73,0,4.17,0,.74,0,1.35.09,2.09.11.13,0,.86.05,1,.09a2.54,2.54,0,0,1,.48.1c.15,0,.22.16.41.16.34,0,.32-.45.3-.84l-.41-.56a1.81,1.81,0,0,1-.72.1,4.91,4.91,0,0,0-.72-.08c-.57,0-1-.06-1.52-.07S35.47,53,34.93,53a12.46,12.46,0,0,0-1.54,0c-.72.07-2.31,0-3.09-.05-1.06,0-2,0-3.05,0-.27.24-.24,0-.57,0-.82,0-1.59,0-2.33,0-.42,0-.81,0-1.14,0s-.78,0-1.1,0c-1.44,0-3.15.07-4.63,0-3-.08-5.82.37-8.67.29l-.05-.73a17.22,17.22,0,0,1,.13-2.85c.13-.91.1-1.85.19-2.79s.12-1.94.25-2.76c0-.27.14-1.12.15-1.36,0-.48.11-.91.11-1.39L10.1,36l.6-7.2.2-2.33.1-2.79a2,2,0,0,0-.3-.77c-.34,0-.3-.22-.69,0-.19.09-.15.39-.14.66L10,24c0,.18.06.4.06.58"/><path class="cls-1" d="M24.89,1.68a18.5,18.5,0,0,1-.24,1.88c0,.3,0,.64-.11.94s.09.79-.21.82a1.08,1.08,0,0,0-.08.33c0,.3.19.33.33.54a2.07,2.07,0,0,1,.27.54c.17.36.36.82.51,1.18.28.7.8,1.79,1,2.42a9.65,9.65,0,0,1,.74,2l2.27,6.14.57,1.63a8.59,8.59,0,0,1,.5,1.36c.15.36.37,1,.5,1.33s.25.94.41,1.42a11.22,11.22,0,0,1,.43,1.42l-1.89.23L29,26a5.43,5.43,0,0,1-1.23.16,4.29,4.29,0,0,0-.59.07,4.56,4.56,0,0,0-1.13.22.74.74,0,0,0-.51,0c-.23-.12-.68.07-.92.1s-.7,0-.75.19l-.55.07c-.19,0-.84-.05-1,.19l-1.89.14c-.51,0-1,.1-1.53.1l-1.1-.05c.2-.27,0-.3.18-.58s.14-.37.2-.55c.14-.34.31-.7.44-1.07a16.73,16.73,0,0,1,.85-2.16c.28-.55.67-1.49.91-2.07a19.57,19.57,0,0,1,.93-2.1,16.38,16.38,0,0,1,.91-2.07c.33-.67.7-1.31,1-2s.76-1.31,1.09-1.92c.17-.34.37-.61.55-.95s.51-.85.78-.86l0-.76c-.19,0-.93-.39-.92.16a7.11,7.11,0,0,0-1,1.53c-.26.52-.52,1-.82,1.49s-.52,1-.8,1.53c-.16.3-.64,1.37-.78,1.55l-3.1,6.89-1.57,3.87c.26.18.28.27.3.76s.25.12.27.54l.38,0,.79-.1a2.45,2.45,0,0,1,.81-.13h.51l.45-.06L21.72,28l.23,0,1.15-.19a7.7,7.7,0,0,1,1.38-.16,2.86,2.86,0,0,1,.83-.1c0-.06.58-.1.72-.1.28,0,.58-.13.89-.13l.59-.07,1.28-.19,2.09-.26h.42c.36,0,.37.15.8.14l.08.42.26.24h.21l.17-.09c.23,0,.26-.18.36-.34a2,2,0,0,0,.2-.52l0-.45a.74.74,0,0,0-.5-.54h-.17l-.06-.42-.21-.76-2.1-6-1.74-4.72-.36-.85c0-.3-.13-.24-.13-.42s-.18-.3-.26-.6a7,7,0,0,1-.31-1l-2-4.9c.2-.24.1-.39,0-.73a2.9,2.9,0,0,1,0-.7,7.14,7.14,0,0,1,.13-1.34c.06-.4.09-.91.17-1.31A8.27,8.27,0,0,0,26.06.76C26,0,25.79.33,25.64,0c-1.12,0-.5,1.22-.76,1.68"/><path class="cls-1" d="M38.34,29.19l.57,6.61c0,.82.61,7.4.43,7.71l.31,3.85,0,.88.31,2.58v.52c0,.27-.06.3,0,.58a.6.6,0,0,0,.15.39,1,1,0,0,0,.67.06c.28-.06.33-.22.46-.4l-.23-.82c-.18-2.18-.43-4.4-.57-6.52-.07-.67,0-1.52-.07-2.28l-.81-11.9c0-1.06-.25-2.18-.32-3.16,0-.45-.12-1-.15-1.55,0-.21-.06-.49-.07-.79s-.2-.3-.29-.54l-.72.1-.1.33c0,.39.14.48.16,1a7.51,7.51,0,0,0,.13,1.12,17.43,17.43,0,0,1,.2,2.25"/><path class="cls-1" d="M31,9.67a.75.75,0,0,0,.58.57h.51c.11,0,.2-.15.2-.24,0-.94-.56-.66-1-.87a.59.59,0,0,0-.26.55"/><path class="cls-1" d="M23.75,37.59s.11,0,.13,0h0a.73.73,0,0,0,0,.15A2.44,2.44,0,0,0,24,38l.32-.09h0a4.37,4.37,0,0,0,.37-.24l.75-.52,1.08-.77h0c.16-.07.33-.18.48-.27l.77-.46.86-.52L28.9,35,29,34.9h0v0a3,3,0,0,1-.2.68c-.08.2-.16.4-.24.61s-.13.42-.19.62-.08.27-.11.41a1.23,1.23,0,0,0,0,.24c0,.2.18.26.36.25s.29-.39.32-.52a4.35,4.35,0,0,1,.15-.47c.07-.15.12-.32.18-.48l.28-.76.28-.8a.52.52,0,0,1,.1-.19l.1-.12a.3.3,0,0,0,0-.24.5.5,0,0,0-.19-.38.54.54,0,0,0-.31-.11l-.18.24-.09.1a1.5,1.5,0,0,1-.32.22,5.66,5.66,0,0,1-.68.43,12.08,12.08,0,0,1-1.4.86c-.9.54-1.75,1.16-2.61,1.75l0,0v0a2,2,0,0,0-.11-.47c-.06-.21-.14-.41-.22-.62s-.29-.69-.43-1A8.11,8.11,0,0,1,23,32.59h-.18l-.65,4.84-.43-.13h0c0-.41.08-.84.14-1.25q.12-.92.27-1.84A14.69,14.69,0,0,1,22.87,31h0c.42.36.38,1.34.49,1.86s1,3.9,1.32,3.92c.11,0,.26-.08.26-.2a6.77,6.77,0,0,0-.47-1.66c-.09-.26-.17-.54-.24-.8s-.09-.33-.13-.5a3.12,3.12,0,0,1-.07-.34,7.91,7.91,0,0,0-.18-.91c-.07-.29-.15-.59-.2-.88A3.05,3.05,0,0,0,23.6,31a.92.92,0,0,0-.75-.73c-.47,0-1,2.08-1,2.49,0,.18-.05.37-.08.55l-.12.9c0,.33-.09.67-.14,1a4.45,4.45,0,0,1-.09.5l-.13,1.41h0a2.28,2.28,0,0,1-.44-.19l-.3-.15-.15-.07c-.17,0-.25.08-.24.26h0c-.13.37.88.46,1.05.7l.24.09.36.14a3,3,0,0,0,.62.19.4.4,0,0,0,.25-.06l.26-2.93h0c.1,0,.25.51.28.59l.11.32a1.73,1.73,0,0,0,.08.22,5.64,5.64,0,0,1,.35,1.06h0a1.14,1.14,0,0,0,0,.29"/><path class="cls-1" d="M23.59,43.86h0a8.32,8.32,0,0,0,.22,1.07c.07.25.14.5.23.74a3.88,3.88,0,0,0,.25.57A3,3,0,0,0,26,47.59a1.33,1.33,0,0,0,1-.18,1.57,1.57,0,0,0,.46-1.06,10.7,10.7,0,0,0,0-1.91v0h0a5.13,5.13,0,0,0,.57.28l.74.29c.27.1.55.19.83.27a3.93,3.93,0,0,0,.63.14c.25,0,.63,0,.61-.35h0l0-.06c.11-.25-.28-.7-.43-.88a9.56,9.56,0,0,0-1.33-1.17,11.77,11.77,0,0,0-1.52-1c-.12-.06-.73-.38-.85-.24a.1.1,0,0,0,0,.08h0c-.1.52.48.66.84.79a4.4,4.4,0,0,1,.9.57c.27.21.55.42.81.64s.33.28.48.43a2.49,2.49,0,0,1,.33.37l0,0h0a3.17,3.17,0,0,1-.9-.14,9,9,0,0,1-1.29-.52,2.94,2.94,0,0,0-.86-.32c-.11,0-.25,0-.24.17a1,1,0,0,0,0,.22c0,.11.07.22.09.34A2.51,2.51,0,0,1,27,45a6.22,6.22,0,0,1,0,1.22,1,1,0,0,1-.33.68.73.73,0,0,1-.59,0c-.31,0-.77-.51-.94-.76A6.09,6.09,0,0,1,24.51,45a5.86,5.86,0,0,1-.39-1.34,5.33,5.33,0,0,0-.34-1.35,7.4,7.4,0,0,1-.8,1.52c-.25.43-.55.82-.84,1.22a3.22,3.22,0,0,0-.17.29c-.07.13-.14.26-.22.38l-.16.24c-.27.4-1,1.38-1.52,1.39a.79.79,0,0,1-.31,0c-.18-.08-.21-.32-.22-.5a10,10,0,0,1,0-1.19,10.5,10.5,0,0,1,.29-1.85c.12-.46.2-.93.3-1.4a2.73,2.73,0,0,1,.18-.54c.07-.17.15-.35.2-.53s.07-.26,0-.35a.26.26,0,0,0-.22-.08l-.12,0c-.36.11-.46.85-.51,1.16a9.57,9.57,0,0,1-.29,1.52c-.1.57-.21,1.13-.29,1.7A10.5,10.5,0,0,0,19,46.7c0,.31.12,1.38.56,1.38h0a.93.93,0,0,0,.24,0A1.69,1.69,0,0,0,21,47.6,6,6,0,0,0,22,46.27h0a7.66,7.66,0,0,0,.83-1.16l.5-.83.17-.29a1.07,1.07,0,0,0,.07-.12"/><path class="cls-1" d="M31.25,44.2c.12,0,.26-.06.26-.2h0c.14-.16-.5-.72-.6-.82l-.41-.35-.29-.25a3.3,3.3,0,0,0-.27-.26,6.64,6.64,0,0,0-.84-.61l-.32-.2a.87.87,0,0,1-.17-.12l0,0h0a14.89,14.89,0,0,0,2.12-.87c.25-.11.5-.23.74-.36l.77-.41c.49-.29,2.5-1.5,2.48-2.1,0-.43-1-.37-1.31-.37a23.11,23.11,0,0,0-3.55.33c-.81.22-1.64.35-2.46.54h0v0a1.82,1.82,0,0,1,.12-.39c.08-.21.16-.42.25-.63s.36-.85.39-1l-.14,0c-.25.17-1.71,1-1.7,1.21a.26.26,0,0,0,.28.29c.2,0,.37-.37.61-.4h0l-.43,1.24h0c-.06.08-.3.27-.23.38.21.36.54.1.75-.07h0l.57-.15.34-.1.21-.07a4.34,4.34,0,0,1,.9-.19l.76-.1L31.35,38a21.68,21.68,0,0,1,2.47-.16h0v0a7.14,7.14,0,0,1-1.27,1.05c-.47.28-1,.53-1.42.83a6.28,6.28,0,0,1-.65.35q-.47.23-1,.44c-.3.13-.6.25-.91.36a4.43,4.43,0,0,1-.71.21c-.1,0-.48.06-.47.2s.87.48,1,.65a7.43,7.43,0,0,1,1,.72c.29.26.61.48.89.75a4.52,4.52,0,0,0,.9.81"/><path class="cls-1" d="M22,44.32a7,7,0,0,0,1.23-2.52c0-.1-.18-.22-.28-.22-.53,0-.34.2-.34.59h0a6.42,6.42,0,0,1-.32.59c-.11.19-.23.39-.35.57s-.64,1.28-.93,1.44l0,0v0c.2-1.28.47-2.54.76-3.8a4.72,4.72,0,0,1,.24-.89,1.5,1.5,0,0,0,.06-.45.07.07,0,0,0,0,0c-.05-.07-.24,0-.31,0l-.2,0-.11,0-.42.15a9.44,9.44,0,0,1-3.56.79l0,0c0-.06.14-.21.17-.25s.3-.26.46-.39l.36-.27.28-.18c.2-.12,1.45-.59,1.43-.82a.38.38,0,0,0-.32-.32c-.58,0-1.44.74-2,1s-1.43.86-1.4,1.49c0,.43,1,.4,1.27.4a2.76,2.76,0,0,0,.4,0l.5-.1a8.18,8.18,0,0,0,.9-.24l.85-.28.53-.16a2.48,2.48,0,0,1,.36-.09h0v0a2.87,2.87,0,0,1-.08.62c-.06.3-.13.6-.2.89l-.2.81c0,.2-.1.4-.12.6s-.06.45-.09.67l-.13.83c0,.3-.09.6-.13.9a5.22,5.22,0,0,0-.05.7.12.12,0,0,0,.06.06c.23.1.86-.8,1-1s.34-.5.5-.76l.17-.26a1,1,0,0,1,.08-.11"/><path class="cls-1" d="M25.05,38.94a.43.43,0,0,1,0,.42.28.28,0,0,1-.33.1c-.08,0-.08-.29,0-.44s.24-.13.3-.09m6.76-.54a7.8,7.8,0,0,0-1.17.13l-1.24.23c-.23,0-2.06.38-2,.61a.29.29,0,0,0,.28.32,7.23,7.23,0,0,0,.8-.22l.43-.11a2.88,2.88,0,0,1,.49-.08h0l0,0a3.08,3.08,0,0,1-.86.43c-.25.1-.52.19-.76.31a3.12,3.12,0,0,1-.9.34l-.27,0-.2,0a.51.51,0,0,0-.23.17l0,0v0c0-.3-.13-.71-.51-.71a.35.35,0,0,0-.36.41c0,.19.32,0,.34.33a.56.56,0,0,1-.59.63.88.88,0,0,1-.41-.11.53.53,0,0,1-.27-.51c0-.41.4-.41.46-.68v0h0a.62.62,0,0,0,.46-.16.74.74,0,0,0,.29-.44v-.27a.6.6,0,0,0-.1-.37c-.07-.12-.24-.32-.4-.28H25s-.06.12-.09.12l-.09,0-.1,0c-.09,0-.24.2-.28.27a1.41,1.41,0,0,0-.15.46.63.63,0,0,0,.06.44h0l-.42.42,0,0h0a1.47,1.47,0,0,0,.25-1,.66.66,0,0,0-.17-.3c-.05-.06-.21-.23-.3-.22a.24.24,0,0,0-.22.35c0,.13.17.22.22.33a.4.4,0,0,1-.19.54h0c-.19,0-.32,0-.33-.26h0l.1-.15c.05-.07.15-.21.13-.3s-.24-.17-.34-.19a.41.41,0,0,0-.31.17.72.72,0,0,0-.14.48c0,.69.9.7.92,1v.21a.32.32,0,0,1-.32.29h0l0,0a.26.26,0,0,1,0-.21l0-.13,0-.06c0-.09-.21-.23-.3-.22a.21.21,0,0,0-.14,0c-.14.12-.11.47-.1.64a.47.47,0,0,0,.46.41h.3c.22,0,.26-.15.44-.21h0v0a1.24,1.24,0,0,0,1.08.62h.21a1.94,1.94,0,0,0,.55-.24,2.18,2.18,0,0,0,.4-.4h0l1.33-.44.22-.08.39-.15.59-.23c.4-.15.78-.34,1.17-.53s1.95-.84,2-1.35"/><path class="cls-1" d="M21.5,38.88c.14,0,.16-.25.15-.35h0c.18-.25-1.47-.8-1.63-.87-.49-.26-1.26-.68-1.28-1.31,0-.2.82-.11.93-.11l.53,0,.34,0h0c.23.13.5.28.48-.14a.36.36,0,0,1,0,0,.48.48,0,0,0,0-.1c0-.09-.09-.14-.17-.17a3.06,3.06,0,0,0-.75-.15c-.45,0-1.76-.22-2,.25a1,1,0,0,0,0,.73,1.79,1.79,0,0,0,.41.55l.37.33a2.78,2.78,0,0,1,.31.31,2.84,2.84,0,0,0,.44.23l.71.31,1.09.46"/><path class="cls-1" d="M26,46.5a.3.3,0,0,0,.16,0c.36-.22.26-1.23.24-1.61a11.66,11.66,0,0,0-.18-1.42c0-.25-.13-1.11-.49-1.1-.19,0-.3.09-.29.29,0,.37.27.53.33.88a10.28,10.28,0,0,1,.09,1.06c0,.33,0,.67,0,1s-.19.5-.17.79c0,.09.22.16.29.16"/><path class="cls-1" d="M34.71,18.38c.14.18.63.54,1,.3l.08-.3c0-.3-.38-.76-.62-.75s-.55.1-.54.31a1.53,1.53,0,0,0,.1.45"/><path class="cls-1" d="M14.34,15.83c0,.49.05.76.55.75h.51c.09,0,.09,0,.17-.09l0-.52a1.16,1.16,0,0,0-.77-.36.52.52,0,0,0-.43.22"/><path class="cls-1" d="M19.16,9.13a.64.64,0,0,0,.58.66h.4c.15,0,.2-.21.19-.34a.74.74,0,0,0-.75-.66h-.17c-.13,0-.26.19-.25.34"/><polygon class="cls-1" points="19.09 86.08 17.39 86.08 18.77 87.12 18.24 88.81 19.61 87.77 20.98 88.81 20.45 87.12 21.82 86.08 20.13 86.08 19.61 84.39 19.09 86.08"/><polygon class="cls-1" points="28.59 86.08 26.89 86.08 28.27 87.12 27.74 88.81 29.11 87.77 30.48 88.81 29.95 87.12 31.32 86.08 29.63 86.08 29.11 84.39 28.59 86.08"/><polygon class="cls-1" points="38.09 86.08 36.4 86.08 37.77 87.12 37.24 88.81 38.61 87.77 39.98 88.81 39.45 87.12 40.82 86.08 39.13 86.08 38.61 84.39 38.09 86.08"/><polygon class="cls-1" points="9.59 86.08 7.89 86.08 9.27 87.12 8.74 88.81 10.11 87.77 11.48 88.81 10.95 87.12 12.32 86.08 10.63 86.08 10.11 84.39 9.59 86.08"/><path class="cls-1" d="M48.22,66.47c-.17,0-.37,0-.56,0V63.14c0-.3-.1-.43-.38-.43H47l0,0v3.89a.37.37,0,0,0,.39.42H49a.39.39,0,0,0,.44-.32,1.94,1.94,0,0,0,0-.26Zm-2.1,0H44.49l-.42,0c0-.12,0-.21,0-.32v-1h1.58a1.26,1.26,0,0,0,0-.56H44.08v-.88c0-.16,0-.25,0-.41H46A.94.94,0,0,0,46,63a1.37,1.37,0,0,0,0-.26H43.46l0,0v3.86a.37.37,0,0,0,.39.42h1.88a.38.38,0,0,0,.43-.31,1.34,1.34,0,0,0,0-.26M41,67a2.11,2.11,0,0,0,.34,0,2,2,0,0,0,.33,0V63.3h.78c.26,0,.38-.08.38-.3a1.22,1.22,0,0,0,0-.26h-2.9a1.57,1.57,0,0,0,0,.28,1.55,1.55,0,0,0,0,.28H41c0,.18,0,.3,0,.47Zm-4.89-2.16a2.45,2.45,0,0,0,.67,1.86,1.76,1.76,0,0,0,2.19,0,2.92,2.92,0,0,0,0-3.72,1.77,1.77,0,0,0-2.19,0,2.45,2.45,0,0,0-.67,1.86m.71,0c0-.76.18-1.7,1.06-1.7s1.06.93,1.06,1.7-.18,1.7-1.06,1.7-1.06-.94-1.06-1.7M34.5,67a2.06,2.06,0,0,0,.34,0,2,2,0,0,0,.33,0V62.73a2.06,2.06,0,0,0-.34,0,2,2,0,0,0-.33,0v1.34c0,.18,0,.3,0,.47H32.73c0-.17,0-.29,0-.47V62.73a2,2,0,0,0-.34,0,1.91,1.91,0,0,0-.33,0V67a1.91,1.91,0,0,0,.33,0,2,2,0,0,0,.34,0V65.57c0-.18,0-.3,0-.47h1.78c0,.17,0,.29,0,.47Zm-7.72-.39a2.74,2.74,0,0,0,1.51.47c1,0,1.55-.54,1.55-1.27a1.32,1.32,0,0,0-.95-1.17l-.73-.32c-.31-.13-.52-.29-.52-.57s.29-.59.76-.59a2.68,2.68,0,0,1,1.08.3.79.79,0,0,0,.25-.52,3.09,3.09,0,0,0-1.34-.33A1.29,1.29,0,0,0,27,63.88,1.18,1.18,0,0,0,27.82,65l.75.32c.37.16.58.39.58.68s-.3.59-.81.59a2.44,2.44,0,0,1-1.27-.43.84.84,0,0,0-.28.52m-3.51,0a2.74,2.74,0,0,0,1.51.47c1,0,1.55-.54,1.55-1.27a1.31,1.31,0,0,0-.95-1.17l-.73-.32c-.31-.13-.52-.29-.52-.57s.29-.59.76-.59a2.67,2.67,0,0,1,1.08.3.79.79,0,0,0,.25-.52,3.09,3.09,0,0,0-1.34-.33,1.29,1.29,0,0,0-1.43,1.22A1.18,1.18,0,0,0,24.31,65l.75.32c.37.16.58.39.58.68s-.3.59-.81.59a2.44,2.44,0,0,1-1.27-.43.83.83,0,0,0-.28.52m-.49-.18H21.15l-.42,0c0-.12,0-.21,0-.32v-1h1.58a1.26,1.26,0,0,0,0-.56H20.74v-.88c0-.16,0-.25,0-.41h1.89a.94.94,0,0,0,0-.3,1.44,1.44,0,0,0,0-.26H20.12l0,0v3.86a.37.37,0,0,0,.38.42h1.88a.38.38,0,0,0,.43-.31,1.34,1.34,0,0,0,0-.26M18.9,62.71h-.22c-.27,0-.36.12-.36.42V64.7c0,.44,0,1.09.05,1.59h0c-.12-.26-.26-.59-.42-.91l-1.33-2.65a3.35,3.35,0,0,0-.4,0,3.11,3.11,0,0,0-.4,0V67a1.92,1.92,0,0,0,.31,0l.31,0v-2c0-.47,0-1.11-.06-1.55h0c.11.26.25.56.4.88L18.13,67a3.44,3.44,0,0,0,.4,0,3.21,3.21,0,0,0,.4,0v-4.3Zm-5.11,3.76c-.17,0-.37,0-.56,0V63.14c0-.3-.1-.43-.38-.43H12.6l0,0v3.89a.37.37,0,0,0,.39.42h1.65a.39.39,0,0,0,.44-.32,1.94,1.94,0,0,0,0-.26Zm-3.23,0c-.17,0-.37,0-.56,0V63.14c0-.3-.1-.43-.38-.43H9.36l0,0v3.89a.37.37,0,0,0,.39.42h1.65a.39.39,0,0,0,.44-.32,1.94,1.94,0,0,0,0-.26Zm-2.1,0H6.82l-.42,0c0-.12,0-.21,0-.32v-1H8a1.22,1.22,0,0,0,0-.56H6.41v-.88c0-.16,0-.25,0-.41H8.29a.94.94,0,0,0,.05-.3,1.37,1.37,0,0,0,0-.26H5.79l0,0v3.86a.37.37,0,0,0,.39.42H8a.38.38,0,0,0,.43-.31,1.34,1.34,0,0,0,0-.26M.8,66.74c.06.29.23.33.44.33a5.74,5.74,0,0,0,.58,0l.38-2c.08-.42.19-1,.28-1.56h0c.08.54.18,1.15.25,1.56l.3,1.69c.05.28.21.33.42.33a4.58,4.58,0,0,0,.6,0L5,62.79l0,0a1.33,1.33,0,0,0-.32,0,1.63,1.63,0,0,0-.3,0l-.49,2.46c-.06.33-.17.92-.23,1.3,0,0,0,0-.06-.08l-.63-3.59a3,3,0,0,0-.43,0,3.35,3.35,0,0,0-.43,0l-.69,3.67s0,0-.06-.08c0-.3-.15-.9-.2-1.22L.73,63c0-.27-.14-.36-.36-.36a.9.9,0,0,0-.37.08Z"/><path class="cls-1" d="M48.71,78.74a2.28,2.28,0,0,1-.64-1.08l-.61-1.74c-.29-.78-.62-1.35-1.51-1.53a2.65,2.65,0,0,0,.64-.81l1.77-3.16-.1-.13c-.35,0-.74-.05-1-.05-.55,0-.73.22-1,.65l-1.44,2.58c-.16.3-.25.4-.55.4h-.52V70.3a5.1,5.1,0,0,0-.87-.07,5.2,5.2,0,0,0-.87.07v8.88a5.2,5.2,0,0,0,.87.06,5.1,5.1,0,0,0,.87-.06V75.35l.73,0c.69,0,1.05.34,1.37,1.24l.6,1.7c.22.69.44,1,1.09,1a1.43,1.43,0,0,0,1.17-.55m-15.84-4a5,5,0,0,0,1.39,3.84,3.46,3.46,0,0,0,2.37.79A3.42,3.42,0,0,0,39,78.57a6,6,0,0,0,0-7.66,3.42,3.42,0,0,0-2.37-.79,3.46,3.46,0,0,0-2.37.79,5,5,0,0,0-1.39,3.82m1.83,0c0-1.47.27-3.25,1.92-3.25s1.92,1.78,1.92,3.25S38.29,78,36.63,78s-1.92-1.79-1.92-3.26m-7.09-3.15h1.09c1.16,0,1.39.94,1.39,1.64s-.23,1.64-1.39,1.64l-1.09,0Zm4.28,1.65a2.79,2.79,0,0,0-3.08-3c-.94,0-1.81,0-2.85.05l-.09.08v8.82a5.2,5.2,0,0,0,.87.06,5.1,5.1,0,0,0,.87-.06v-3h1.2a2.81,2.81,0,0,0,3.08-3M16.74,74.74a5,5,0,0,0,1.39,3.84,3.46,3.46,0,0,0,2.37.79,3.42,3.42,0,0,0,2.37-.79,6,6,0,0,0,0-7.66,3.42,3.42,0,0,0-2.37-.79,3.46,3.46,0,0,0-2.37.79,5,5,0,0,0-1.39,3.82m1.83,0c0-1.47.27-3.25,1.92-3.25s1.92,1.78,1.92,3.25S22.15,78,20.5,78s-1.92-1.79-1.92-3.26m-5.21,4.45a5.35,5.35,0,0,0,.88.06,5.2,5.2,0,0,0,.87-.06V70.3a5.45,5.45,0,0,0-.88-.07,5.1,5.1,0,0,0-.87.07v2.61c0,.36,0,.61,0,1H10.15c0-.35,0-.6,0-1V70.3a5.1,5.1,0,0,0-.87-.07,5.2,5.2,0,0,0-.87.07v8.88a5.2,5.2,0,0,0,.87.06,5.1,5.1,0,0,0,.87-.06v-2.9c0-.36,0-.61,0-1h3.23c0,.35,0,.6,0,1Zm-8.1-5.57a2.94,2.94,0,0,0,.69.09.87.87,0,0,0,1-1c0-1.42-1.26-2.63-3.24-2.63S0,71.53,0,74.78c0,2.28.87,4.59,3.5,4.59A5,5,0,0,0,6.9,78a2.11,2.11,0,0,0-.83-1.13,3.75,3.75,0,0,1-2.26.95c-1.24,0-2-1.07-2-3.06s.57-3.28,1.81-3.28,1.64,1.07,1.61,2.11"/></g></g></svg>