<svg xmlns="http://www.w3.org/2000/svg" viewBox="0 0 168.63 21.92"><defs><style>.cls-1{fill:#bd296e;}</style></defs><title>Datový zdroj 19</title><g id="Vrstva_2" data-name="Vrstva 2"><g id="Vrstva_1-2" data-name="Vrstva 1"><path class="cls-1" d="M4.12,21.92H0L3.32,8.32a3.1,3.1,0,0,0,.08-.58c0-.52-.2-.86-.48-.86-.54,0-1.38,1.62-1.56,2L1.14,8.7C1.72,7.56,3,5,5.66,5c1.64,0,2,.9,2,1.94a1.87,1.87,0,0,1,0,.34C8.6,5.42,9.82,5,10.78,5c1.94,0,3.28,2,3.28,4,0,3-2.2,7.16-6.42,7.16a2.61,2.61,0,0,1-1.9-.66Zm1.7-6.76a1.25,1.25,0,0,0,1.1.58c2,0,3.24-7.3,3.24-8.3S9.8,6,9.28,6c-.7,0-1.58,1.38-2,3Z"/><path class="cls-1" d="M19.34,16h-4l1.76-7.68a3,3,0,0,0,.06-.58c0-.52-.2-.88-.48-.88-.54,0-1.36,1.62-1.54,2l-.2-.14C15.48,7.56,16.72,5,19.38,5c1.56,0,2,1.12,2,2.44.84-1.66,2.1-2.78,3.46-2.78a1.7,1.7,0,0,1,1.74,1.8,2.86,2.86,0,0,1-2.64,2.9A1.49,1.49,0,0,1,22.38,7.9a2.52,2.52,0,0,1,2.36-2.38,2.39,2.39,0,0,1,1.1.3c.06,0,.12-.08.12-.18,0-.3-.44-.74-1.22-.74-1,0-3,1.14-3.82,4.66Z"/><path class="cls-1" d="M30.26,12.92c0,2,.58,2.92,1.42,2.92,1.44,0,3.48-1.46,4.48-3.28l.22.14a6.5,6.5,0,0,1-5.72,3.56c-2.46,0-4.58-1.48-4.58-4.36C26.08,7.8,30.36,5,34.16,5c2.14,0,3,1.16,3,2.46,0,2.38-4.26,3.6-6.86,4C30.3,12,30.26,12.5,30.26,12.92Zm3.62-7.56c-1.28,0-3.16,2.86-3.52,5.68a.73.73,0,0,0,.2,0,4,4,0,0,0,4.16-4.36C34.72,5.84,34.38,5.36,33.88,5.36Z"/><path class="cls-1" d="M53.92,12.7a5.62,5.62,0,0,1-5.3,3.56c-2.54,0-5.26-1.64-5.26-4.84C43.36,8,46.68,5,51.14,5c2.34,0,3.72,1.2,3.72,2.82a1.91,1.91,0,0,1-2.08,1.94,2.06,2.06,0,0,1-2.22-2A2,2,0,0,1,52.5,5.88a5,5,0,0,1,.64.06.1.1,0,0,0,0-.08c0-.18-.56-.5-1.22-.5-2.56,0-4.44,4.3-4.44,7.76,0,2,1,2.72,2.06,2.72,1.44,0,3.32-1.46,4.08-3.28Z"/><path class="cls-1" d="M59.7,12.92c0,2,.58,2.92,1.42,2.92,1.44,0,3.48-1.46,4.48-3.28l.22.14a6.5,6.5,0,0,1-5.72,3.56c-2.46,0-4.58-1.48-4.58-4.36C55.52,7.8,59.8,5,63.6,5c2.14,0,3,1.16,3,2.46,0,2.38-4.26,3.6-6.86,4C59.74,12,59.7,12.5,59.7,12.92Zm3.62-7.56C62,5.36,60.16,8.22,59.8,11a.73.73,0,0,0,.2,0,4,4,0,0,0,4.16-4.36C64.16,5.84,63.82,5.36,63.32,5.36Z"/><path class="cls-1" d="M70.22,1.58a2.23,2.23,0,0,0,0-.34.9.9,0,0,0-.9-1h-.5V0h5.66c.22,0,.4,0,.4.22,0,0,0,.1,0,.14L71.76,13.64a2,2,0,0,0-.06.48c0,.48.22.86.66.86a2.73,2.73,0,0,0,1.5-.92l.22.16a6.49,6.49,0,0,1-4.54,2c-1.24,0-2.3-.58-2.3-1.84a2.69,2.69,0,0,1,.08-.66Z"/><path class="cls-1" d="M74.54,7.32a3.85,3.85,0,0,1,3.8-2.4c1.46,0,2.58.72,2.58,1.92,0,1.4-1.66,6.56-1.66,7.32,0,.42.18.8.54.8.58,0,1.6-1.8,2.46-3.64l1.46-6.1h4.14L86.1,12.9a3,3,0,0,0-.06.58c0,.52.18.86.46.86.54,0,1.36-1.62,1.54-2l.22.16c-.56,1.14-1.8,3.68-4.46,3.68a1.89,1.89,0,0,1-2-2.16,10,10,0,0,1,.34-1.92c-1.42,3.22-2.92,4.18-4.66,4.18a2.16,2.16,0,0,1-2.36-2.2c0-1.36,1.64-6.54,1.64-7.42a.58.58,0,0,0-.64-.6c-.7,0-1.2,1-1.36,1.32Zm6.9-3.6-.38.3L81,3.88l.38-.3c.9-.7,1.4-2.74,2.7-2.74a.61.61,0,0,1,.62.64.56.56,0,0,1,0,.18C84.34,2.94,82.3,3,81.44,3.72Z"/><path class="cls-1" d="M98.9,16h-4l1.76-7.68a3,3,0,0,0,.06-.58c0-.52-.2-.88-.48-.88-.54,0-1.36,1.62-1.54,2l-.2-.14C95,7.56,96.28,5,98.94,5c1.56,0,2,1.12,2,2.44.84-1.66,2.1-2.78,3.46-2.78a1.7,1.7,0,0,1,1.74,1.8,2.86,2.86,0,0,1-2.64,2.9,1.49,1.49,0,0,1-1.56-1.48,2.52,2.52,0,0,1,2.36-2.38,2.39,2.39,0,0,1,1.1.3c.06,0,.12-.08.12-.18,0-.3-.44-.74-1.22-.74-1,0-3,1.14-3.82,4.66Z"/><path class="cls-1" d="M110.14,16.38a4.33,4.33,0,0,1-4.6-4.52c0-3.74,3.58-7.06,7.28-7.06a4.32,4.32,0,0,1,4.58,4.52,5.66,5.66,0,0,1-.14,1.26A7.63,7.63,0,0,1,110.14,16.38Zm3.62-10.16c0-.8-.28-1.18-1-1.18-1.2,0-1.68,1.06-2.74,5.62A24,24,0,0,0,109.3,15c0,.94.34,1.12.92,1.12,1.12,0,1.64-1,2.66-5.42A26.77,26.77,0,0,0,113.76,6.22Z"/><path class="cls-1" d="M129.7,13.64a2,2,0,0,0-.06.48c0,.48.22.86.66.86a2.73,2.73,0,0,0,1.5-.92l.22.16a6.69,6.69,0,0,1-4.84,2,1.89,1.89,0,0,1-1.92-2.1,4.32,4.32,0,0,1-4.06,2.14,3.42,3.42,0,0,1-3.3-3.56c0-3.36,3.12-7.7,7.38-7.7A1.54,1.54,0,0,1,127,6.62l1.2-5a2.23,2.23,0,0,0,0-.34.9.9,0,0,0-.9-1h-.5V0h5.66c.22,0,.4,0,.4.22,0,0,0,.1,0,.14ZM126.84,7.1c-.08-.9-.28-1.72-1-1.72-1.68,0-3.32,6.4-3.32,8.22,0,1.32.32,1.78.94,1.78s1.2-.76,1.76-1.64Z"/><path class="cls-1" d="M134.61,6.74a2.23,2.23,0,0,0,0-.34.9.9,0,0,0-.9-1h-.5V5.16h5.66c.22,0,.4,0,.4.22,0,0,0,.1,0,.14l-2,8.12a2,2,0,0,0-.06.48c0,.48.22.86.66.86a2.73,2.73,0,0,0,1.5-.92l.22.16a6.49,6.49,0,0,1-4.54,2c-1.24,0-2.3-.58-2.3-1.84a2.69,2.69,0,0,1,.08-.66Zm2.46-2.28a1.73,1.73,0,0,1-1.92-1.64A2.78,2.78,0,0,1,138,.4,1.69,1.69,0,0,1,139.9,2a3,3,0,0,1,0,.4A2.89,2.89,0,0,1,137.07,4.46Z"/><path class="cls-1" d="M154.44,13.9a3.85,3.85,0,0,1-3.8,2.4c-1.46,0-2.58-.72-2.58-1.92,0-1.4,1.72-6.74,1.72-7.5,0-.42-.18-.74-.54-.74-.58,0-2,2-2.84,3.76L144.93,16h-4.14l1.76-7.68a3,3,0,0,0,.06-.58c0-.52-.18-.86-.46-.86-.54,0-1.36,1.62-1.54,2l-.22-.16C141,7.56,142.19,5,144.85,5a1.89,1.89,0,0,1,2,2.16,10,10,0,0,1-.34,1.92c1.66-3.32,3.24-4.18,5-4.18a2.16,2.16,0,0,1,2.36,2.2c0,1.36-1.64,6.54-1.64,7.42a.58.58,0,0,0,.64.6c.7,0,1.06-1,1.36-1.32Z"/><path class="cls-1" d="M154.91,7.32a3.85,3.85,0,0,1,3.8-2.4c1.46,0,2.58.72,2.58,1.92,0,1.4-1.66,6.56-1.66,7.32,0,.42.18.8.54.8.58,0,1.6-1.8,2.46-3.64l1.46-6.1h4.14l-1.76,7.68a3,3,0,0,0-.06.58c0,.52.18.86.46.86.54,0,1.36-1.62,1.54-2l.22.16c-.56,1.14-1.8,3.68-4.46,3.68a1.89,1.89,0,0,1-2-2.16,10,10,0,0,1,.34-1.92c-1.42,3.22-2.92,4.18-4.66,4.18a2.16,2.16,0,0,1-2.36-2.2c0-1.36,1.64-6.54,1.64-7.42a.58.58,0,0,0-.64-.6c-.7,0-1.2,1-1.36,1.32Z"/></g></g></svg>