<svg xmlns="http://www.w3.org/2000/svg" viewBox="0 0 264.99 39.77"><defs><style>.cls-1{fill:#bd296e;}</style></defs><title>Datový zdroj 12</title><g id="Vrstva_2" data-name="Vrstva 2"><g id="Vrstva_1-2" data-name="Vrstva 1"><path class="cls-1" d="M33,20.83c-1.58,7-3.05,9.72-8.66,9.72C20.52,30.54,19,28.47,19,26c0-2.33.94-4.14,1.69-7.34a8.39,8.39,0,0,0,.23-1.77c0-1.54-.75-2.22-2.52-2.22H15.67l-3,12.92a3.87,3.87,0,0,0-.11.83c0,.9.49,1.24,1.28,1.24h1.77l-.08.45H0l.08-.45H1.66a2.46,2.46,0,0,0,2.56-2.15L9.94,2.82a5.93,5.93,0,0,0,.11-1c0-1-.53-1.36-1.43-1.36H6.78L6.89,0H21.43C29.86,0,33,2.37,33,5.76c0,5.23-5.87,7.64-9.68,8.59l0,.15c2.11.53,6.18,1.58,6.18,5.27a6.08,6.08,0,0,1-.15,1.39l-1.24,5.42a5.33,5.33,0,0,0-.15.94c0,.64.3,1,.87,1,1.51,0,2.79-3.54,3.73-7.68ZM24.59,3.39C24.59.83,23.35.45,21.5.45H18.94L15.78,14.16h2.64c3.09,0,4.26-.94,5.61-6.78A19.85,19.85,0,0,0,24.59,3.39Z"/><path class="cls-1" d="M42.21,24.29c0,3.84,1.09,5.5,2.67,5.5,2.71,0,6.55-2.75,8.44-6.18l.41.26c-2.56,4.29-6.18,6.7-10.77,6.7s-8.62-2.79-8.62-8.21c0-7.72,8.06-13,15.21-13,4,0,5.72,2.18,5.72,4.63,0,4.48-8,6.78-12.92,7.57C42.28,22.56,42.21,23.5,42.21,24.29ZM49,10.05c-2.41,0-6,5.38-6.63,10.69a1.32,1.32,0,0,0,.38.08c2.49,0,7.83-1.28,7.83-8.21C50.61,11,50,10.05,49,10.05Z"/><path class="cls-1" d="M64.31,22.75c0,.23,0,.38.6.38,1.28,0,3.28,1,6.4,1,5.08,0,5.35-2,5.91-3.13l.56.34C77,23,73.5,31,69.09,31c-2.26,0-6.67-1.09-9.79-1.09a26.19,26.19,0,0,0-4.18.41c-.38,0-.49-.11-.49-.15s0-.08,0-.08c3-1.51,15.1-13.44,15.1-13.67s0-.26-.83-.26-4-.57-6.25-.57c-5.31,0-5.35,1.66-5.91,2.67L56.25,18c.45-1.51,2.56-8.66,8.55-8.66,2.26,0,5.16.75,8.1.75a24,24,0,0,0,4.33-.38.27.27,0,0,1,.26.3C77.49,10.21,64.31,22.48,64.31,22.75Z"/><path class="cls-1" d="M86.45,24.29c0,3.84,1.09,5.5,2.67,5.5,2.71,0,6.55-2.75,8.44-6.18l.41.26c-2.56,4.29-6.18,6.7-10.77,6.7s-8.62-2.79-8.62-8.21c0-7.72,8.06-13,15.21-13,4,0,5.72,2.18,5.72,4.63,0,4.48-8,6.78-12.92,7.57C86.52,22.56,86.45,23.5,86.45,24.29Zm6.82-14.23c-2.41,0-6,5.38-6.63,10.69a1.32,1.32,0,0,0,.38.08c2.49,0,7.83-1.28,7.83-8.21C94.85,11,94.21,10.05,93.26,10.05Z"/><path class="cls-1" d="M108.7,30.09h-7.57l3.31-14.46a5.68,5.68,0,0,0,.11-1.09c0-1-.38-1.66-.9-1.66-1,0-2.56,3-2.9,3.73l-.38-.26c1.05-2.15,3.39-6.93,8.4-6.93,2.94,0,3.77,2.11,3.77,4.59,1.58-3.13,4-5.23,6.52-5.23a3.19,3.19,0,0,1,3.28,3.39,5.38,5.38,0,0,1-5,5.46,2.81,2.81,0,0,1-2.94-2.79,4.74,4.74,0,0,1,4.44-4.48,4.49,4.49,0,0,1,2.07.57c.11,0,.23-.15.23-.34,0-.57-.83-1.39-2.3-1.39-1.81,0-5.57,2.15-7.19,8.77Z"/><path class="cls-1" d="M142.78,15a4.33,4.33,0,0,1-3.39,1.58,3.78,3.78,0,0,1-3.73-3.69,3.68,3.68,0,0,1,3.73-3.69c2.37,0,4,2,4,4.82,0,7.19-6.29,16.53-14.42,16.53-3.28,0-5.31-2-5.31-4.44s2.86-11,2.86-13.33a1.25,1.25,0,0,0-1.21-1.36c-1,0-2.41,1.28-3.09,2L122,13c1-1,4.52-3.73,8.17-3.73,2.6,0,4.1,1.28,4.1,3.69,0,3.16-3.39,10.47-3.39,14,0,1.24.41,2,1.51,2C137.16,29,142.78,20.15,142.78,15Z"/><path class="cls-1" d="M144.58,13.75a7.25,7.25,0,0,1,7.15-4.52c2.75,0,4.86,1.36,4.86,3.62,0,2.64-3.13,12.35-3.13,13.78,0,.79.34,1.51,1,1.51,1.09,0,3-3.39,4.63-6.85l2.75-11.49h7.8l-3.31,14.46a5.67,5.67,0,0,0-.11,1.09c0,1,.34,1.62.87,1.62,1,0,2.56-3,2.9-3.73l.41.3c-1.05,2.15-3.39,6.93-8.4,6.93-2.79,0-3.77-1.88-3.77-4.07a18.81,18.81,0,0,1,.64-3.62c-2.67,6.06-5.5,7.87-8.77,7.87a4.06,4.06,0,0,1-4.44-4.14c0-2.56,3.09-12.31,3.09-14a1.09,1.09,0,0,0-1.21-1.13c-1.32,0-2.26,1.85-2.56,2.49Z"/><path class="cls-1" d="M179.18,30.69c-1.43,6.14-7.23,9.08-13.07,9.08-3.09,0-4.9-1.39-4.9-3.58A4.92,4.92,0,0,1,166,31.52a2.84,2.84,0,0,1,3.09,2.79,4.53,4.53,0,0,1-4.48,4.29c-.3,0-.41,0-.41.19,0,.3.68.56,1.77.56a4,4,0,0,0,4.18-3.5l5.46-23.35a2.91,2.91,0,0,0,.08-.56A1.76,1.76,0,0,0,174,10.17H172.7l.15-.49h11.26Zm1.09-22.33c-2.11,0-3.58-1.28-3.58-3,0-2.49,2.64-4.59,5.35-4.59,2.11,0,3.54,1.28,3.54,3.05a5.67,5.67,0,0,1-.08.75A5.44,5.44,0,0,1,180.27,8.36Z"/><path class="cls-1" d="M196.84,10.17l-3.77,15.89a9.87,9.87,0,0,0-.26,1.81c0,1.05.41,1.47,1.17,1.47,1.62,0,2.94-1.81,3.46-2.41l.45.23a7.79,7.79,0,0,1-6.74,3.35c-4.07,0-5.42-2.71-5.42-5.87a13.41,13.41,0,0,1,.38-3L189,10.17h-2.86l0-.49h2c3.8,0,9.08-3.28,10-7.38h.49L197,9.68h3.84l0,.49Z"/><path class="cls-1" d="M207.31,24.29c0,3.84,1.09,5.5,2.67,5.5,2.71,0,6.55-2.75,8.44-6.18l.41.26c-2.56,4.29-6.18,6.7-10.77,6.7s-8.62-2.79-8.62-8.21c0-7.72,8.06-13,15.21-13,4,0,5.72,2.18,5.72,4.63,0,4.48-8,6.78-12.92,7.57C207.38,22.56,207.31,23.5,207.31,24.29Zm6.82-14.23c-2.41,0-6,5.38-6.63,10.69a1.32,1.32,0,0,0,.38.08c2.49,0,7.83-1.28,7.83-8.21C215.7,11,215.06,10.05,214.12,10.05Z"/><path class="cls-1" d="M237.42,30.16c3,0,4.33-1,4.33-2.71,0-4-8.21-5-8.21-10.58,0-4.11,4-7.53,9.75-7.53,3.8,0,6.4,2.11,6.4,4.52a3.08,3.08,0,0,1-3.05,3,3.2,3.2,0,0,1-3.39-2.94,3.06,3.06,0,0,1,3.16-2.9,2.92,2.92,0,0,1,1.58.42,5.58,5.58,0,0,0-4.18-1.66c-2.52,0-4,1.62-4,3,0,3.54,8.55,5.2,8.55,10.58,0,4.25-4.48,7.23-10.09,7.23-4.18,0-7.23-1.62-7.23-4.67a3.21,3.21,0,0,1,3.13-3.24,3.15,3.15,0,0,1,3.31,3.16,3.05,3.05,0,0,1-3.13,2.9,5.08,5.08,0,0,1-1.85-.45C233.06,29.18,235.65,30.16,237.42,30.16Z"/><path class="cls-1" d="M255,12.65a4.21,4.21,0,0,0,.08-.64,1.69,1.69,0,0,0-1.69-1.88h-.94V9.68h10.66c.41,0,.75,0,.75.41,0,.08,0,.19,0,.26l-3.73,15.29a3.69,3.69,0,0,0-.11.9c0,.9.41,1.62,1.24,1.62s2.3-1.13,2.82-1.73l.41.3a12.22,12.22,0,0,1-8.55,3.8c-2.33,0-4.33-1.09-4.33-3.46a5.08,5.08,0,0,1,.15-1.24Zm4.63-4.29c-2.15,0-3.62-1.32-3.62-3.09,0-2.45,2.64-4.56,5.39-4.56C263.56.71,265,2,265,3.77a5.67,5.67,0,0,1-.08.75A5.44,5.44,0,0,1,259.68,8.36Z"/></g></g></svg>