<svg xmlns="http://www.w3.org/2000/svg" viewBox="0 0 251.89 39.81"><defs><style>.cls-1{fill:#bd296e;}</style></defs><title>Datový zdroj 13</title><g id="Vrstva_2" data-name="Vrstva 2"><g id="Vrstva_1-2" data-name="Vrstva 1"><path class="cls-1" d="M5.61,3a4.19,4.19,0,0,0,.08-.64A1.69,1.69,0,0,0,4,.45H3.05V0H13.71c.41,0,.75,0,.75.41,0,.08,0,.19,0,.26l-5.91,25a3.72,3.72,0,0,0-.11.9c0,.9.41,1.62,1.24,1.62s2.3-1.13,2.82-1.73l.41.3a12.22,12.22,0,0,1-8.55,3.8C2,30.58,0,29.49,0,27.11a5.08,5.08,0,0,1,.15-1.24Z"/><path class="cls-1" d="M22,24.33c0,3.84,1.09,5.5,2.67,5.5,2.71,0,6.55-2.75,8.44-6.18l.41.26c-2.56,4.29-6.18,6.7-10.77,6.7s-8.62-2.79-8.62-8.21c0-7.72,8.06-13,15.21-13,4,0,5.72,2.18,5.72,4.63,0,4.48-8,6.78-12.92,7.57C22.1,22.6,22,23.54,22,24.33Zm6.82-14.23c-2.41,0-6,5.38-6.63,10.69a1.32,1.32,0,0,0,.38.08c2.49,0,7.83-1.28,7.83-8.21C30.42,11,29.78,10.09,28.84,10.09Z"/><path class="cls-1" d="M47.93,10.21,44.17,26.1a9.92,9.92,0,0,0-.26,1.81c0,1.05.41,1.47,1.17,1.47,1.62,0,2.94-1.81,3.46-2.41l.45.23a7.79,7.79,0,0,1-6.74,3.35c-4.07,0-5.42-2.71-5.42-5.87a13.41,13.41,0,0,1,.38-3l2.86-11.49H37.2l0-.49h2c3.8,0,9.08-3.28,10-7.38h.49L48.08,9.72h3.84l0,.49Z"/><path class="cls-1" d="M59,30.84c-5.39,0-8.66-3.65-8.66-8.51C50.34,15.29,57.08,9,64,9c5.35,0,8.62,3.65,8.62,8.51a10.65,10.65,0,0,1-.26,2.37C71,25.95,65.21,30.84,59,30.84Zm6.82-19.13c0-1.51-.53-2.22-1.81-2.22-2.26,0-3.16,2-5.16,10.58a45.28,45.28,0,0,0-1.43,8.21c0,1.77.64,2.11,1.73,2.11,2.11,0,3.09-1.85,5-10.21C65.06,16.31,65.82,13.44,65.82,11.71Z"/><path class="cls-1" d="M105.31,15.06a4.33,4.33,0,0,1-3.39,1.58A3.78,3.78,0,0,1,98.19,13a3.68,3.68,0,0,1,3.73-3.69c2.37,0,4,2,4,4.82,0,7.19-6.29,16.53-14.42,16.53-3.28,0-5.31-2-5.31-4.44S89,15.14,89,12.84a1.25,1.25,0,0,0-1.21-1.36c-1,0-2.41,1.28-3.09,2L84.49,13c1-1,4.52-3.73,8.17-3.73,2.6,0,4.11,1.28,4.11,3.69,0,3.16-3.39,10.47-3.39,14,0,1.24.41,2,1.51,2C99.7,29,105.31,20.19,105.31,15.06Z"/><path class="cls-1" d="M148.57.49h-1.66a2.52,2.52,0,0,0-2.56,1.92l-4.67,20.3c-1.24,5.35-8.13,8.4-14,8.4-4.63,0-8.62-1.92-8.62-6.06,0-4,3.54-7.27,6.85-7.27a4,4,0,0,1,4.18,4c0,3-3.13,5.76-6,5.76a11.52,11.52,0,0,1-2.33-.41c-.19,0-.23.19-.23.38,0,1.17,1.58,2.86,4.41,2.86s5.54-2,6.37-5.65l5-21.77a4.49,4.49,0,0,0,.11-.94c0-1.17-.75-1.54-2-1.54h-1.77l.11-.49h16.95Z"/><path class="cls-1" d="M167.47,25.61a7.41,7.41,0,0,1-6.85,4.93c-2.11,0-4.29-1.05-4.29-3.84a7.15,7.15,0,0,1,.15-1.73c-1.36,3.31-2.86,5.69-7,5.69-3,0-5.84-2-5.84-6.51,0-7.42,7-14.61,12.2-14.61,2.15,0,3.43.64,4,2.22l.64-2h8l-4.14,15.85a7.5,7.5,0,0,0-.3,1.88c0,.6.3.94.6.94.83,0,2-1.77,2.45-2.94Zm-9.83-15.25c-3.28,0-6.55,11.56-6.55,15.48,0,2,.75,2.86,1.81,2.86,2.67,0,6.48-12.5,6.48-15.55C159.38,11.67,158.7,10.36,157.65,10.36Z"/><path class="cls-1" d="M174.77,30.2c3,0,4.33-1,4.33-2.71,0-4-8.21-5-8.21-10.58,0-4.11,4-7.53,9.75-7.53,3.8,0,6.4,2.11,6.4,4.52a3.08,3.08,0,0,1-3,3A3.2,3.2,0,0,1,180.61,14a3.06,3.06,0,0,1,3.16-2.9,2.92,2.92,0,0,1,1.58.42,5.58,5.58,0,0,0-4.18-1.66c-2.52,0-4,1.62-4,3,0,3.54,8.55,5.2,8.55,10.58,0,4.25-4.48,7.23-10.09,7.23-4.18,0-7.23-1.62-7.23-4.67a3.22,3.22,0,0,1,3.13-3.24,3.15,3.15,0,0,1,3.31,3.16,3.05,3.05,0,0,1-3.12,2.9,5.09,5.09,0,0,1-1.85-.45C170.41,29.22,173,30.2,174.77,30.2Z"/><path class="cls-1" d="M214.58,26.17a7.25,7.25,0,0,1-7.16,4.52c-2.75,0-4.86-1.36-4.86-3.62,0-2.64,3.24-12.69,3.24-14.12,0-.79-.34-1.39-1-1.39-1.09,0-3.69,3.77-5.35,7.08l-2.75,11.49h-7.79l3.31-14.46a5.68,5.68,0,0,0,.11-1.09c0-1-.34-1.62-.87-1.62-1,0-2.56,3-2.9,3.73l-.41-.3c1.05-2.15,3.39-6.93,8.4-6.93,2.79,0,3.77,1.88,3.77,4.07a18.82,18.82,0,0,1-.64,3.62c3.13-6.25,6.1-7.87,9.38-7.87a4.07,4.07,0,0,1,4.44,4.14c0,2.56-3.09,12.31-3.09,14a1.09,1.09,0,0,0,1.21,1.13c1.32,0,2-1.85,2.56-2.49Z"/><path class="cls-1" d="M223.76,24.33c0,3.84,1.09,5.5,2.67,5.5,2.71,0,6.55-2.75,8.44-6.18l.41.26c-2.56,4.29-6.18,6.7-10.77,6.7s-8.62-2.79-8.62-8.21c0-7.72,8.06-13,15.21-13,4,0,5.72,2.18,5.72,4.63,0,4.48-8,6.78-12.92,7.57C223.83,22.6,223.76,23.54,223.76,24.33Zm6.82-14.23c-2.41,0-6,5.38-6.63,10.69a1.33,1.33,0,0,0,.38.08c2.48,0,7.83-1.28,7.83-8.21C232.16,11,231.52,10.09,230.58,10.09Z"/><path class="cls-1" d="M245.48,30.73c-1.43,6.14-7.23,9.08-13.07,9.08-3.09,0-4.9-1.39-4.9-3.58a4.92,4.92,0,0,1,4.75-4.67,2.84,2.84,0,0,1,3.09,2.79,4.53,4.53,0,0,1-4.48,4.29c-.3,0-.41,0-.41.19,0,.3.68.56,1.77.56a4,4,0,0,0,4.18-3.5l5.46-23.35a2.87,2.87,0,0,0,.08-.56,1.76,1.76,0,0,0-1.66-1.77H239l.15-.49h11.26ZM246.58,8.4c-2.11,0-3.58-1.28-3.58-3,0-2.49,2.64-4.59,5.35-4.59,2.11,0,3.54,1.28,3.54,3.05a5.74,5.74,0,0,1-.07.75A5.44,5.44,0,0,1,246.58,8.4Z"/></g></g></svg>